<mxfile host="app.diagrams.net" modified="2020-11-11T17:53:25.167Z" agent="5.0 (Windows NT 10.0; Win64; x64) AppleWebKit/537.36 (KHTML, like Gecko) Chrome/86.0.4240.193 Safari/537.36" etag="4HwAIyYR3XX7qKZspMZa" version="13.9.6" type="github">
  <diagram id="C5RBs43oDa-KdzZeNtuy" name="Page-1">
    <mxGraphModel dx="1447" dy="1919" grid="1" gridSize="10" guides="1" tooltips="1" connect="1" arrows="1" fold="1" page="1" pageScale="1" pageWidth="827" pageHeight="1169" background="none" math="0" shadow="0">
      <root>
        <mxCell id="WIyWlLk6GJQsqaUBKTNV-0" />
        <mxCell id="WIyWlLk6GJQsqaUBKTNV-1" parent="WIyWlLk6GJQsqaUBKTNV-0" />
        <mxCell id="zkfFHV4jXpPFQw0GAbJ--0" value="Ebook" style="swimlane;fontStyle=2;align=center;verticalAlign=top;childLayout=stackLayout;horizontal=1;startSize=26;horizontalStack=0;resizeParent=1;resizeLast=0;collapsible=1;marginBottom=0;rounded=0;shadow=0;strokeWidth=1;" parent="WIyWlLk6GJQsqaUBKTNV-1" vertex="1">
          <mxGeometry x="290" y="220" width="180" height="292" as="geometry">
            <mxRectangle x="230" y="140" width="160" height="26" as="alternateBounds" />
          </mxGeometry>
        </mxCell>
        <mxCell id="zkfFHV4jXpPFQw0GAbJ--1" value="text : String " style="text;align=left;verticalAlign=top;spacingLeft=4;spacingRight=4;overflow=hidden;rotatable=0;points=[[0,0.5],[1,0.5]];portConstraint=eastwest;" parent="zkfFHV4jXpPFQw0GAbJ--0" vertex="1">
          <mxGeometry y="26" width="180" height="34" as="geometry" />
        </mxCell>
        <mxCell id="cPH1qQ2LK0hJFeqGdGXG-30" value="Exportable : export" style="text;align=left;verticalAlign=top;spacingLeft=4;spacingRight=4;overflow=hidden;rotatable=0;points=[[0,0.5],[1,0.5]];portConstraint=eastwest;" vertex="1" parent="zkfFHV4jXpPFQw0GAbJ--0">
          <mxGeometry y="60" width="180" height="30" as="geometry" />
        </mxCell>
        <mxCell id="zkfFHV4jXpPFQw0GAbJ--4" value="" style="line;html=1;strokeWidth=1;align=left;verticalAlign=middle;spacingTop=-1;spacingLeft=3;spacingRight=3;rotatable=0;labelPosition=right;points=[];portConstraint=eastwest;" parent="zkfFHV4jXpPFQw0GAbJ--0" vertex="1">
          <mxGeometry y="90" width="180" height="8" as="geometry" />
        </mxCell>
        <mxCell id="zkfFHV4jXpPFQw0GAbJ--5" value="language : String&#xa;" style="text;align=left;verticalAlign=top;spacingLeft=4;spacingRight=4;overflow=hidden;rotatable=0;points=[[0,0.5],[1,0.5]];portConstraint=eastwest;" parent="zkfFHV4jXpPFQw0GAbJ--0" vertex="1">
          <mxGeometry y="98" width="180" height="26" as="geometry" />
        </mxCell>
        <mxCell id="cPH1qQ2LK0hJFeqGdGXG-0" value="verifyAccess(String) : true" style="text;align=left;verticalAlign=top;spacingLeft=4;spacingRight=4;overflow=hidden;rotatable=0;points=[[0,0.5],[1,0.5]];portConstraint=eastwest;" vertex="1" parent="zkfFHV4jXpPFQw0GAbJ--0">
          <mxGeometry y="124" width="180" height="26" as="geometry" />
        </mxCell>
        <mxCell id="cPH1qQ2LK0hJFeqGdGXG-1" value="Exportador(Exportable)" style="text;align=left;verticalAlign=top;spacingLeft=4;spacingRight=4;overflow=hidden;rotatable=0;points=[[0,0.5],[1,0.5]];portConstraint=eastwest;" vertex="1" parent="zkfFHV4jXpPFQw0GAbJ--0">
          <mxGeometry y="150" width="180" height="26" as="geometry" />
        </mxCell>
        <mxCell id="cPH1qQ2LK0hJFeqGdGXG-2" value="exportar()" style="text;align=left;verticalAlign=top;spacingLeft=4;spacingRight=4;overflow=hidden;rotatable=0;points=[[0,0.5],[1,0.5]];portConstraint=eastwest;" vertex="1" parent="zkfFHV4jXpPFQw0GAbJ--0">
          <mxGeometry y="176" width="180" height="26" as="geometry" />
        </mxCell>
        <mxCell id="cPH1qQ2LK0hJFeqGdGXG-3" value="screeAdapter(Screen)" style="text;align=left;verticalAlign=top;spacingLeft=4;spacingRight=4;overflow=hidden;rotatable=0;points=[[0,0.5],[1,0.5]];portConstraint=eastwest;" vertex="1" parent="zkfFHV4jXpPFQw0GAbJ--0">
          <mxGeometry y="202" width="180" height="26" as="geometry" />
        </mxCell>
        <mxCell id="cPH1qQ2LK0hJFeqGdGXG-46" value="print(printer)" style="text;align=left;verticalAlign=top;spacingLeft=4;spacingRight=4;overflow=hidden;rotatable=0;points=[[0,0.5],[1,0.5]];portConstraint=eastwest;" vertex="1" parent="zkfFHV4jXpPFQw0GAbJ--0">
          <mxGeometry y="228" width="180" height="26" as="geometry" />
        </mxCell>
        <mxCell id="cPH1qQ2LK0hJFeqGdGXG-5" style="rounded=0;orthogonalLoop=1;jettySize=auto;html=1;exitX=0;exitY=0.5;exitDx=0;exitDy=0;entryX=1;entryY=0.5;entryDx=0;entryDy=0;strokeWidth=1;edgeStyle=orthogonalEdgeStyle;endArrow=block;endFill=0;endSize=5.33;startSize=0;" edge="1" parent="WIyWlLk6GJQsqaUBKTNV-1" source="cPH1qQ2LK0hJFeqGdGXG-4" target="cPH1qQ2LK0hJFeqGdGXG-6">
          <mxGeometry relative="1" as="geometry" />
        </mxCell>
        <mxCell id="cPH1qQ2LK0hJFeqGdGXG-4" value="Ingles" style="rounded=0;whiteSpace=wrap;html=1;" vertex="1" parent="WIyWlLk6GJQsqaUBKTNV-1">
          <mxGeometry x="690" y="263" width="120" height="60" as="geometry" />
        </mxCell>
        <mxCell id="cPH1qQ2LK0hJFeqGdGXG-7" style="edgeStyle=orthogonalEdgeStyle;curved=0;rounded=1;sketch=0;orthogonalLoop=1;jettySize=auto;html=1;exitX=0;exitY=0.5;exitDx=0;exitDy=0;entryX=1;entryY=0.5;entryDx=0;entryDy=0;" edge="1" parent="WIyWlLk6GJQsqaUBKTNV-1" source="cPH1qQ2LK0hJFeqGdGXG-6" target="zkfFHV4jXpPFQw0GAbJ--5">
          <mxGeometry relative="1" as="geometry" />
        </mxCell>
        <mxCell id="cPH1qQ2LK0hJFeqGdGXG-6" value="Language" style="rounded=0;whiteSpace=wrap;html=1;sketch=0;" vertex="1" parent="WIyWlLk6GJQsqaUBKTNV-1">
          <mxGeometry x="530" y="263" width="120" height="60" as="geometry" />
        </mxCell>
        <mxCell id="cPH1qQ2LK0hJFeqGdGXG-14" value="&lt;&lt;interface&gt;&gt;&#xa;Exportable " style="swimlane;fontStyle=2;align=center;verticalAlign=top;childLayout=stackLayout;horizontal=1;startSize=40;horizontalStack=0;resizeParent=1;resizeLast=0;collapsible=1;marginBottom=0;rounded=0;shadow=0;strokeWidth=1;" vertex="1" parent="WIyWlLk6GJQsqaUBKTNV-1">
          <mxGeometry x="290" y="550" width="180" height="112" as="geometry">
            <mxRectangle x="230" y="140" width="160" height="26" as="alternateBounds" />
          </mxGeometry>
        </mxCell>
        <mxCell id="cPH1qQ2LK0hJFeqGdGXG-16" value="" style="line;html=1;strokeWidth=1;align=left;verticalAlign=middle;spacingTop=-1;spacingLeft=3;spacingRight=3;rotatable=0;labelPosition=right;points=[];portConstraint=eastwest;" vertex="1" parent="cPH1qQ2LK0hJFeqGdGXG-14">
          <mxGeometry y="40" width="180" height="38" as="geometry" />
        </mxCell>
        <mxCell id="cPH1qQ2LK0hJFeqGdGXG-17" value="exportar() &#xa;" style="text;align=left;verticalAlign=top;spacingLeft=4;spacingRight=4;overflow=hidden;rotatable=0;points=[[0,0.5],[1,0.5]];portConstraint=eastwest;" vertex="1" parent="cPH1qQ2LK0hJFeqGdGXG-14">
          <mxGeometry y="78" width="180" height="34" as="geometry" />
        </mxCell>
        <mxCell id="cPH1qQ2LK0hJFeqGdGXG-51" style="edgeStyle=orthogonalEdgeStyle;curved=0;rounded=1;sketch=0;orthogonalLoop=1;jettySize=auto;html=1;exitX=0.5;exitY=0;exitDx=0;exitDy=0;" edge="1" parent="WIyWlLk6GJQsqaUBKTNV-1" source="cPH1qQ2LK0hJFeqGdGXG-31">
          <mxGeometry relative="1" as="geometry">
            <mxPoint x="419" y="662" as="targetPoint" />
          </mxGeometry>
        </mxCell>
        <mxCell id="cPH1qQ2LK0hJFeqGdGXG-31" value="DocxFile" style="swimlane;fontStyle=2;align=center;verticalAlign=top;childLayout=stackLayout;horizontal=1;startSize=40;horizontalStack=0;resizeParent=1;resizeLast=0;collapsible=1;marginBottom=0;rounded=0;shadow=0;strokeWidth=1;" vertex="1" parent="WIyWlLk6GJQsqaUBKTNV-1">
          <mxGeometry x="630" y="700" width="180" height="112" as="geometry">
            <mxRectangle x="230" y="140" width="160" height="26" as="alternateBounds" />
          </mxGeometry>
        </mxCell>
        <mxCell id="cPH1qQ2LK0hJFeqGdGXG-32" value="" style="line;html=1;strokeWidth=1;align=left;verticalAlign=middle;spacingTop=-1;spacingLeft=3;spacingRight=3;rotatable=0;labelPosition=right;points=[];portConstraint=eastwest;" vertex="1" parent="cPH1qQ2LK0hJFeqGdGXG-31">
          <mxGeometry y="40" width="180" height="38" as="geometry" />
        </mxCell>
        <mxCell id="cPH1qQ2LK0hJFeqGdGXG-33" value="exportar() &#xa;" style="text;align=left;verticalAlign=top;spacingLeft=4;spacingRight=4;overflow=hidden;rotatable=0;points=[[0,0.5],[1,0.5]];portConstraint=eastwest;" vertex="1" parent="cPH1qQ2LK0hJFeqGdGXG-31">
          <mxGeometry y="78" width="180" height="34" as="geometry" />
        </mxCell>
        <mxCell id="cPH1qQ2LK0hJFeqGdGXG-50" style="edgeStyle=orthogonalEdgeStyle;curved=0;rounded=1;sketch=0;orthogonalLoop=1;jettySize=auto;html=1;exitX=0.5;exitY=0;exitDx=0;exitDy=0;entryX=0.5;entryY=1;entryDx=0;entryDy=0;" edge="1" parent="WIyWlLk6GJQsqaUBKTNV-1" source="cPH1qQ2LK0hJFeqGdGXG-34" target="cPH1qQ2LK0hJFeqGdGXG-14">
          <mxGeometry relative="1" as="geometry" />
        </mxCell>
        <mxCell id="cPH1qQ2LK0hJFeqGdGXG-34" value="HtmlFile" style="swimlane;fontStyle=2;align=center;verticalAlign=top;childLayout=stackLayout;horizontal=1;startSize=40;horizontalStack=0;resizeParent=1;resizeLast=0;collapsible=1;marginBottom=0;rounded=0;shadow=0;strokeWidth=1;" vertex="1" parent="WIyWlLk6GJQsqaUBKTNV-1">
          <mxGeometry x="440" y="700" width="180" height="112" as="geometry">
            <mxRectangle x="230" y="140" width="160" height="26" as="alternateBounds" />
          </mxGeometry>
        </mxCell>
        <mxCell id="cPH1qQ2LK0hJFeqGdGXG-35" value="" style="line;html=1;strokeWidth=1;align=left;verticalAlign=middle;spacingTop=-1;spacingLeft=3;spacingRight=3;rotatable=0;labelPosition=right;points=[];portConstraint=eastwest;" vertex="1" parent="cPH1qQ2LK0hJFeqGdGXG-34">
          <mxGeometry y="40" width="180" height="38" as="geometry" />
        </mxCell>
        <mxCell id="cPH1qQ2LK0hJFeqGdGXG-36" value="exportar() " style="text;align=left;verticalAlign=top;spacingLeft=4;spacingRight=4;overflow=hidden;rotatable=0;points=[[0,0.5],[1,0.5]];portConstraint=eastwest;" vertex="1" parent="cPH1qQ2LK0hJFeqGdGXG-34">
          <mxGeometry y="78" width="180" height="34" as="geometry" />
        </mxCell>
        <mxCell id="cPH1qQ2LK0hJFeqGdGXG-49" style="edgeStyle=orthogonalEdgeStyle;curved=0;rounded=1;sketch=0;orthogonalLoop=1;jettySize=auto;html=1;exitX=0.5;exitY=0;exitDx=0;exitDy=0;entryX=0.25;entryY=1;entryDx=0;entryDy=0;" edge="1" parent="WIyWlLk6GJQsqaUBKTNV-1" source="cPH1qQ2LK0hJFeqGdGXG-37" target="cPH1qQ2LK0hJFeqGdGXG-14">
          <mxGeometry relative="1" as="geometry" />
        </mxCell>
        <mxCell id="cPH1qQ2LK0hJFeqGdGXG-37" value="MdFile" style="swimlane;fontStyle=2;align=center;verticalAlign=top;childLayout=stackLayout;horizontal=1;startSize=40;horizontalStack=0;resizeParent=1;resizeLast=0;collapsible=1;marginBottom=0;rounded=0;shadow=0;strokeWidth=1;" vertex="1" parent="WIyWlLk6GJQsqaUBKTNV-1">
          <mxGeometry x="250" y="700" width="180" height="112" as="geometry">
            <mxRectangle x="230" y="140" width="160" height="26" as="alternateBounds" />
          </mxGeometry>
        </mxCell>
        <mxCell id="cPH1qQ2LK0hJFeqGdGXG-38" value="" style="line;html=1;strokeWidth=1;align=left;verticalAlign=middle;spacingTop=-1;spacingLeft=3;spacingRight=3;rotatable=0;labelPosition=right;points=[];portConstraint=eastwest;" vertex="1" parent="cPH1qQ2LK0hJFeqGdGXG-37">
          <mxGeometry y="40" width="180" height="38" as="geometry" />
        </mxCell>
        <mxCell id="cPH1qQ2LK0hJFeqGdGXG-39" value="exportar() &#xa;" style="text;align=left;verticalAlign=top;spacingLeft=4;spacingRight=4;overflow=hidden;rotatable=0;points=[[0,0.5],[1,0.5]];portConstraint=eastwest;" vertex="1" parent="cPH1qQ2LK0hJFeqGdGXG-37">
          <mxGeometry y="78" width="180" height="34" as="geometry" />
        </mxCell>
        <mxCell id="cPH1qQ2LK0hJFeqGdGXG-40" value="PDFFile" style="swimlane;fontStyle=2;align=center;verticalAlign=top;childLayout=stackLayout;horizontal=1;startSize=40;horizontalStack=0;resizeParent=1;resizeLast=0;collapsible=1;marginBottom=0;rounded=0;shadow=0;strokeWidth=1;" vertex="1" parent="WIyWlLk6GJQsqaUBKTNV-1">
          <mxGeometry x="60" y="700" width="180" height="112" as="geometry">
            <mxRectangle x="230" y="140" width="160" height="26" as="alternateBounds" />
          </mxGeometry>
        </mxCell>
        <mxCell id="cPH1qQ2LK0hJFeqGdGXG-41" value="" style="line;html=1;strokeWidth=1;align=left;verticalAlign=middle;spacingTop=-1;spacingLeft=3;spacingRight=3;rotatable=0;labelPosition=right;points=[];portConstraint=eastwest;" vertex="1" parent="cPH1qQ2LK0hJFeqGdGXG-40">
          <mxGeometry y="40" width="180" height="38" as="geometry" />
        </mxCell>
        <mxCell id="cPH1qQ2LK0hJFeqGdGXG-42" value="exportar() :" style="text;align=left;verticalAlign=top;spacingLeft=4;spacingRight=4;overflow=hidden;rotatable=0;points=[[0,0.5],[1,0.5]];portConstraint=eastwest;" vertex="1" parent="cPH1qQ2LK0hJFeqGdGXG-40">
          <mxGeometry y="78" width="180" height="34" as="geometry" />
        </mxCell>
        <mxCell id="cPH1qQ2LK0hJFeqGdGXG-52" style="edgeStyle=orthogonalEdgeStyle;curved=0;rounded=1;sketch=0;orthogonalLoop=1;jettySize=auto;html=1;exitX=0;exitY=0.5;exitDx=0;exitDy=0;entryX=1;entryY=0.5;entryDx=0;entryDy=0;" edge="1" parent="WIyWlLk6GJQsqaUBKTNV-1" source="cPH1qQ2LK0hJFeqGdGXG-43" target="cPH1qQ2LK0hJFeqGdGXG-14">
          <mxGeometry relative="1" as="geometry" />
        </mxCell>
        <mxCell id="cPH1qQ2LK0hJFeqGdGXG-43" value="OdtFile" style="swimlane;fontStyle=2;align=center;verticalAlign=top;childLayout=stackLayout;horizontal=1;startSize=40;horizontalStack=0;resizeParent=1;resizeLast=0;collapsible=1;marginBottom=0;rounded=0;shadow=0;strokeWidth=1;" vertex="1" parent="WIyWlLk6GJQsqaUBKTNV-1">
          <mxGeometry x="540" y="550" width="180" height="112" as="geometry">
            <mxRectangle x="230" y="140" width="160" height="26" as="alternateBounds" />
          </mxGeometry>
        </mxCell>
        <mxCell id="cPH1qQ2LK0hJFeqGdGXG-44" value="" style="line;html=1;strokeWidth=1;align=left;verticalAlign=middle;spacingTop=-1;spacingLeft=3;spacingRight=3;rotatable=0;labelPosition=right;points=[];portConstraint=eastwest;" vertex="1" parent="cPH1qQ2LK0hJFeqGdGXG-43">
          <mxGeometry y="40" width="180" height="38" as="geometry" />
        </mxCell>
        <mxCell id="cPH1qQ2LK0hJFeqGdGXG-45" value="exportar() " style="text;align=left;verticalAlign=top;spacingLeft=4;spacingRight=4;overflow=hidden;rotatable=0;points=[[0,0.5],[1,0.5]];portConstraint=eastwest;" vertex="1" parent="cPH1qQ2LK0hJFeqGdGXG-43">
          <mxGeometry y="78" width="180" height="34" as="geometry" />
        </mxCell>
        <mxCell id="cPH1qQ2LK0hJFeqGdGXG-47" value="" style="endArrow=classic;html=1;entryX=0.5;entryY=0;entryDx=0;entryDy=0;exitX=0.5;exitY=1;exitDx=0;exitDy=0;" edge="1" parent="WIyWlLk6GJQsqaUBKTNV-1" source="zkfFHV4jXpPFQw0GAbJ--0" target="cPH1qQ2LK0hJFeqGdGXG-14">
          <mxGeometry width="50" height="50" relative="1" as="geometry">
            <mxPoint x="380" y="600" as="sourcePoint" />
            <mxPoint x="430" y="550" as="targetPoint" />
          </mxGeometry>
        </mxCell>
        <mxCell id="cPH1qQ2LK0hJFeqGdGXG-48" value="" style="endArrow=classic;html=1;entryX=0;entryY=0.5;entryDx=0;entryDy=0;exitX=0.5;exitY=0;exitDx=0;exitDy=0;" edge="1" parent="WIyWlLk6GJQsqaUBKTNV-1" source="cPH1qQ2LK0hJFeqGdGXG-40" target="cPH1qQ2LK0hJFeqGdGXG-14">
          <mxGeometry width="50" height="50" relative="1" as="geometry">
            <mxPoint x="380" y="600" as="sourcePoint" />
            <mxPoint x="430" y="550" as="targetPoint" />
          </mxGeometry>
        </mxCell>
        <mxCell id="cPH1qQ2LK0hJFeqGdGXG-63" value="" style="shape=image;verticalLabelPosition=bottom;labelBackgroundColor=#ffffff;verticalAlign=top;aspect=fixed;imageAspect=0;image=data:image/png,iVBORw0KGgoAAAANSUhEUgAAAI8AAACMCAYAAABF9/o9AAAYwklEQVR4Ae3dA5QsPbAH8I/nM89n27Zt27Zt27Zt27Zt27bzzi/vZW/feavZu4OeTZ3TuzM9HVX9u5JUUpWBQqbMgR5yYKAepsvJMgdCBk8GQY85kMHTY9blhBk8GQM95kC74HnooYfCVVddla+S8uD999/vMSCqSdgueJZYYonwyCOP5KuEPDjvvPPCBRdcUA0Gevxsh+DpcY45YUM58Nxzz2XwNFQCJS4ceI477rjw0UcfhR9//LGmLcmap6bsrX/mwHPIIYeEl156KXz55Zc1rUAGT03ZW//MM3jqz/OWKTGDp2VEWf+GZPDUn+ctU2IGT8uIsv4NKSV4fvrpp/Dtt9/Wn1u5xP44UCrw/P3332GLLbYIY489dhhzzDHD9ttv319jevvLuuuuG8sZdthhw8ADDxxGH330+P2DDz7oVlGmr919tlsZNtlDpQLPq6++GoYYYohwwAEHRKG89957kZ1vvvlmOPjgg8Puu+8ennzyyXDSSSeF888/Pxx11FHh7bffjutmu+yyS7juuuvCv//+G37++edw9tlnx+fvvffemMddd90VTjzxxHDFFVeEww47LHz66afRdmHtZuuttw4AxJ7h+/fffx/OOeecmP6ee+4Jf/75Z7jkkkvCWWedFX777beYz/333x/mnXfeMNZYY4Vbb721ycTeO9UpFXh++eWXKIzhhhsuguO///6Lls0RRxwxzDTTTOHII48MN998cxh//PHD4IMPHuaYY45w+umnh1FGGSUceuihYbTRRgtfffVVOOWUU+LnHXfcMf5G4DvssEPULlNNNVUYcsghw7777tvG4b322isMP/zw4Ycffoj35CmvnXbaqS39scceGwYaaKAgz8kmmyx88sknYe655w7jjDNOuO+++9ryaqUPpQIPxn/99ddh0003DUMPPXTYddddw6WXXhqA6e67726TC/CsvvrqUSNss802YcIJJww777xz7HKuvPLKsPLKK4epp546bLbZZmGEEUYItAfwjDTSSFGrTDHFFGHttdduy68SPKuuumoAss033zwArrJpI+kAjxZDq6yySph55pnb8mm1D6UDDwH88ccfYb311osC1NUMM8ww/XUNwAMYiHaYfvrpwzvvvBMvazBrrLFGmGeeedru0WjAM+6448Y00047bafgWWuttaJWSXlK/80334SRRx45DDLIIOHiiy+O+QDPDDPMEGjIVqRSgefZZ5+NWoMm8OYTokW5WWedNcwyyyxh//33D7fcckvstmgF9MQTT4QJJpggrLnmmrFLufPOOwPtY/C7wQYbBJrpscceqwo8V199dRhjjDHC+uuvH7bddtvwwAMPhD322CNqmr333juMOuqo4a233opjH2Oeem1bqDdASwUeWkMXcfnll4fHH388dmEY9tlnnwWguO2228LHH38cB82Eh/7555/w2muvhZtuuikYHBvz0FzPP/98vEfw3333XXj33Xcj0KQB0tdffz2m98cg+dFHH415+S79Cy+80JZeV/riiy/GMZG87E/6/PPPA5OCz/JrRSoVeFpRAGVuUwZPmaXX4Lpn8DRYAGUuPoOnzNJrcN0zeBosgDIXn8FTZuk1uO4ZPA0WQJmLz+Aps/QaXPcMngYLoMzFZ/CUWXoNrntTgMeiZL7KxwM7Dxrut2XVOV/l44E1u4aDp8HaNxffQw40RbfVw7rnZA3mQAZPgwVQ5uIzeMosvQbXPYOnwQIoc/EZPGWWXoPrnsHTYAGUufgMnm5Kz75lToP2RGf6Xw6UHjy77bZb4M3QE2Lk4nHRHeLqbJM7j9NK+uKLL6KLT6u62FS2N31vCvBgOs+GueaaKyy//PLhzDPPDG+88UZ0s1l22WWjAx9vhBNOOCFstNFGYaWVVgrzzz9/FCaXG269XHqnmWaa6I7DtZhrMN8t6ZMfFbccvlSbbLJJ9G7g08WFx/NchhOxmibHvXSPJ8SWW24Zn1tggQUCP/aFF1443HDDDdE9eeKJJ46uPDRUX6GmAA93X16cxx9/fHRX+fXXX6N78BFHHBHdWXiI7rnnntEUzluTqw1XYmDgO8Vv/K+//oouwHzU+aLLkxsMlxnp0UEHHRSdBbnf0CDcbvihe7ZI0qlDkbga8/0Csummmy666dx+++1xTY5rzjrrrBM4//UlagrwEMxCCy0U/asS87faaqu2t/+YY46J2oZGEEwALb744uH666+Pmuiiiy6K9zjyPfXUU/Gz4OCc+pZbbrmojdzkILjCCitEjfHhhx+2OfvFBF38KYJH7GghXgRV2G677WJQBGXlbqsLJg7Azx0GtKQ1aIcNN9wwOu1xwBOMgDcmhzrdFLfi9sBjNV7UDIIrgkfAAd0VX3bayu/y5TioO9MtPf300xFYlUIXdYN2KlJn4NGl0pztjYeKebTa56bQPJgqjs1ss80W/cW57opts+KKK8YoE8YXBHPyySdHMHheN8FL1Ntv3HLuuefGSBk8ORHP0kknnTQsvfTScUxkTCXkCtdj2gc4ANMYyBgGgBPRepWDcGMeYNZtqY/ABrxODbh1e9yblZfHPImLvfu/Q81TLKaS+cYelZqh+LzPZkKuSvr999/jrWKeBF3MDyjTc5Xpq/kun8qxUzXpy/hs02ieMjKvr9c5g6evI2AA2p/BMwDM6+tJmxY8Dz74YHAkT2+RAe+BBx7Y4djo5Zdf7q2i+kw+TQMeFmVTaFN2Rj6zKMElBWdiQ0lXOmFlv/32ixG+2ot9c+qpp0bjYFGK8mShtjYldqFLngJeCoYpjqDvxcF1MX3+/P850BTgMfthrzGVFvHUtJkBkP2GfYVWEM1LiDZTZMGdTI0vvPDCaCGubJalimJwJr+zGpvey1vkLksS7Ea0kUBRpu/K6Wu2mkreVfO9KcCjwuwqwGGJgi0lgcdvonyJdnrjjTfGaTagWbPi+sFG0x0qgoc1m53H0oVYzqzN1swyVceBpgGP7oRWEWiS8S2Bx1iFoU+o2kTAc9lll0Ugtacp5FW05UhXBM9SSy0Vv6dYhLpCXVam6jjQFOBh4BNUWxey2mqrBcG5rVbrtnRNopT67HeLkNatFlxwwRhEUsDtSjK2efjhh/u73Rl4RDLVbek2836d/tjW6ZemAI8a0jDGKQRJa+i6rFK7LFWky33ahpbyfOUalLyMkyqtxtKkowyl9d34x0BaeRY65VepsTrlXh//sWnA08flUMrmZ/CUUmzNUekMnm7IwXgpdXndeDw+YptG5fhJHtXm093yGvFcS4PHAPiZZ54ZYL46/rnaKO5sSpXjMbscnY7TKtQ04DFwtf3CHps04DVITttBvbG+G+wmohFcnveWS0tgBt0sxYAjTTHvYvqUj/TF/TzuGzh7VnqHnrA/ITNDZbifBuXKS1pGXtLON998cR+2zfHpOSC0yc1gXb39VmaLdq3AgzcmMMXJS6f7eSw3sOewt9jUzpZjd54lC4Kxh9kpNw4hcRwRspfY+RPWwEzt2YhYjqeccsq4Id4BJfYZu7fMMsvE/c7SE3yRLE9UWqQdOWALK+A42wJ4CH2fffaJOxtpFvufAXPyySePJgR5uu+eDfEOV2HMTB4aCTw2rKnbxhtvHA+1L9alTJ9rBR5mG/yzezTt0+oUPATMlmMq7lAQ50gAiRNoaAAAoh1mnHHGthNuWKQtZ0hjIzyLMQGzATEyAowzJ+wMlL88JplkknhEUlFI7hdR7jf2pdNOOy3mB7jAYxur45lsU5UGyG1ltf3VCTiIvQh45pxzzggoOyTVAyXwOEzu6KOPjoD3gpSVagUesjBmpAwsJdmX3iV4bGSX0BGQrMw0BHcayxP2ITvtxnFIvCYQVx0HlbAFEZBuAHgcklYJHhZpBIzO1+qKlGU5BPkMPNx5HM+UBr02wjuYBHgssOqeaCvg4RrEywMTWLRRAo/trNpD2x5++OHxtzL+qRV4irwgR0tQPQYP7UEbWWEfb7zx4rGPCkjgATjOf4RE0A5d040VNU9n4KE99LNFsqJv7cyqvb3VwMOQydpt0GtpA7BpHIe0XXPNNdG/jFcH8NhXLd877rijzfUngUc3a382YJX5DFLgcYqiw/BodHyoxUX2nYKH7xWNAAj8o3QRBp8OpDV4MvaxWd0al7NEDaQ57RkkI4Kwcd7vGuKMT2MNgDNI9R3Jj1YrkjOyXnnlleKt2GXqCgnZuMcbgKTlmAgkAIoAE1ABzhKKvczGO8Y17tNOiLuyF4HmAnJOg8Y9ZaV6aB7LUeTYKXi6YiBQGWegNIgqprnqqqviuMZ+ICvw3v4BJV1ge2WpR6pLKqO979JXzuLS8/4bq2lXWamW4KEc9CbGtSY0AwSerhhMAxlke7PT1LirNPn3AeNArcBjY+BQQw0VJz5eMFRT8AwYG3LqnnCgVuBhXrn22mv70/qdgsf4wZSsvS6hs4Z5ntYxra/sOjpL195vUK6rqQXZ9pqm893JnznAMd+VZAuKmV0zUK3A017bOgUPO4ypOi9QV3eIdda0l0HRoNY+nwEhRj8D9VoQ42Q19ePxyr5USWZxAjQ0AzUdeOxVNmvBaBZGMyxnpNMI7D7sKCJkmB3ROKbRyThI81B3NsAvssgi8VkzNmRGxVJs73MaBFOPDH0Meqy+ZlDy5TNvai5v62MGtTbkS28GJrhBcWrvswgclYNf03AGS5bziSaaqA082sfeZCbnGe2gUaQ3ZsMD4DEzNFtbdNFF28pL4LFhjv1jscUW62/Jpp6gajrwAIzL1JiJGqMZ4wyGMXjfffcNLLQ0DmazmWAoGwpNBDgzzzxzVPkYT/gIqABj7LHHjmBjwJO/QAgpAMJoo40WQcKKbVmBBmS30E2Y/puS83lnAGSQTGSAziRQJGBncmAEBG62Ci/Ep59+GkFop6OujPVblwuw0jBZaAvwABgwiSfELIG0VR2YC+yYBGSzkUZQU4OHPQcBClsNU77N695mAZ0QALG9eANZbIEn7XcW/MBbjyw3WDcDEAJx0SwMf4mK4OGBgWgbABthhBHafNFpvyJ4Uvrif1rSNDNZo1O3RauwLtN+1s9ou47Ak9qvrlyDEPAwUvquzazpNFgjqKnBY60L8XCwzkT4vCzYThjiCECXobuigWgJ4GGoM/g1ZmBgsrrO6kyDAAOtpuEEYUGUxpJnETzebjT77LMHDojSG9DLS3dRBA+NURnYSXcpbVrZp7loHgbD1NUYu9AgtJEFXrYpgAF+msdLo41eHPYrpM6s2cCoXn5POw/iA3X803Tg0SW5zL6K4KHOMYvwaSDqXtdjFVv3YGnCGwk8FtS83ZYvrIt5swlPnB9doLEEQVH5tk4QHO2VwMPIWAQPDaHLVAbhJtedJCcA1nUUxzw+H3rooW2h7oR2AR6g5uZDe8nHywBoSy65ZAQSq3PqtmgVVmpa1roamnrqqaO1XFuN1TgMGM81gpoGPNU0nrC87YjWMWZJllzgMRagCdI9z3k+vaGpK3Hfin3xuZhpO38skXgWgI2lumvBVo9k6Cpmaw8QrZHIM8W9PX5zj4btyOip3sW2pLzq9b+U4OmMOdS9xcjeJgNf+4mssVkUzRRi18/rllas3CPV2/zp1M7TW4XpLordR2/lS3PRBgNqiOyt+jRDPi2neZqBqX2lDhk8fUXSNWhnBk8NmNpXsszg6SuSrkE7M3hqwNS+kmUGT1+RdA3a2RTgGWywwUK+yseDQQcdNB+NXYOXsk9k2RSap09wugUbmcHTgkKtV5MyeOrF6RYsJ4OnBYVaryZl8NSL0y1YTgZPCwq1Xk3K4KkXp1uwnAyeFhRqvZqUwVMvTrdgORk8LSjUejWpVODhuGePciWJvcPboXiJ19MTKuZl03ujyMZ5zoI2wTuVh+8YD4+08b+368U3nhdqNVQq8BSPxi42Uvg3gZNEqeKu47OTbLpL/LsEEbL3mbcpQcmju5u6eXPwK+tN4gXCS9YR3ttss038LJxe0eOiN8vjh8YrpJogCk0DHs533HhFFuUjxXdcY7j+8ilHCTz8sPhlOYpagINEQs4V4w1yuON4x7cdmJKrrzear5Swcbwihh566OhEBwQc8oTK5QYDTM5mFz6O+zHXG8T5kCuw4EPcX/h/CbzIT+z000+P54F5jqPefffdF/3Y+Vbx1eKhyi9LO/nN0zDceEQI054Ul1H7uOeI/8zPS92QOvFrE/GV3xeNoVw+9Hz68UZQTXXmaYrEu+EDxh+NwJE8uW7zg9Me7eBOnbxt40Nd/GkK8BCUs8p33HHH4PgibzzGeQsAR/QKlMDjv7BttEVROxTBgxkc/DgLCjeXfL35n3Px5al51llnRcFxpNPl8YwQXw9jeZ2qC5B44wE5CePFF1+MYOR0R9UDPsHpKgn2zDPPjPVVhrQ8XgGHoIGA0JXHTVjMQ8EOBDPQHgAVigWItcHzfNW9AIDIAVEIYZ6n2o53Y401VhQ67QG8QEF7ApQ2KV+9BG+QF+KGzdkRAKTnxy9vabqr3ZoCPBhG6xBWIgLBcMEIeISiBB5Aa2/sUwQPgXiT+XS7UkRS+XjLva2J+JTTdN5qgEv+6/y/hhhiiJiepuD7jrgBAxX3ZvWk0by90p988sntgocGQ04pFI5XnYAWIDj1EZr7AiBwa1aP4viGjzvNoTujBYsOgiJwJI9S9eCdKn9ahVMgsCY+ADwCnhT/Rz2Uif80XjHv+HAHf5oCPCqrC/HGGKR6o2gKKtuby6UYJfAIZ0LlC03iSlQEj24JQKhiwknP0TzUuiAHBErg3mpvciV4eKICIO1AC+hiuEEDta6AILyx3J5TGBhaR8AF95PW8uYn8IgbzX1Y3uql7fKlNQAPiHiJEq426G7xxGcvGJdlXTmwuyePInjwRvm6QlpL/rS0MRmP2cSH9sADTNJ2l5oCPCprJuGNGWeccWJgSm+omMuCCnDuFxSA77euRldB4MKl6GISFcHjHkDQGLoi2ks6ZegWCI8QCFMYFhoOw/mMJ80DTMAgvTeXfzhgA5S4Pro/gJaO/7x6KtOzAOKNFm1D8KkEHnnqErUNuDyv7erpElLGMwCXhONZWk46YCBgbVcHGkfdk+bR9eEZXviPdLPqpu3qjHTDRc0jRAxwpqix8aEu/qT6NY3HqLcwEaEg9zC0kqjk9u4Xn9PnF/Ms/pY+yyP5sad7xf9+84YnMn2Wb/Ind9/35Dfu2a7GDQAqn0SVaYA7DZ5pHtqoSNIrsyNSl2K35zn87Ihfui3jw2qo6cBTTeVb/dkExnq00wvSEbA6Kj+DpyPO5PtdcqBlwJOmml22+P8e8JYlK7Quo9ZvubFIq1HLgMfANcUf7EpIxgoG32xIpr4G6WIGGqTXihg+iwbMWpVTz3ybBjysvuLeiB1ocKhiwGC2QtjuMdezd5gB0RQGnKbOxxxzTJzqJ/CwEAvFxi6TBrpO2WPkM+thS2GZNhBleTXtlb88/Ret64gjjohlM1YCmbB1Zi1mW6bUvqe8aRUGOHmnQbA8LJsINMXmZNDOPtTZwLyegu+NspoGPAInjTjiiNG2QwCMeqatLK8ss+wTI488crQ2MxKaNjtVRhg2xjzh4RJ4hI+zxsWeIw8kZBzDmyk/8JmmAiWBmgpbfEQAZ1os7h8wv/zyyzEeIU3F5mIqT8uxk1ioRQJs0mCm/iKHIetsDG5sV5YmUlnA2CrUNOARxJsGQewebCRCzRIWKyzwsE0w1jG9s3UAgVPhUOq2jGMAhbGM+V3sQsTuQbsha1LWvZAptdC9bCYMkkLaAmYi4AFWZN2IFVj8QUZB2ssSikipwAXwQIRYd9PShSUBYyxtTCCND5X8T1OBh10DWUlmHaZZGPHYNICHEAnb2ESUU+DSHSFgoXkYAL31LMkG0boMRLvonpB1nmLoOfaQM844Iy42WrpI9fAs8KS1NRpw2GGHjUsj8mbOV0flsfy6p1tDDG4szyzRrOE0jwVUSxmtQk0JHmMJEdxpBELWXbQHHgKzbkP7WPcBHuBK53caqwAiKoJHnoAnz1SGbQ+ipAKmbRmWRnRtRfDI22ImMMiDRtTF6lqdn2VAjKGoEjwswyzNyfAZHyr5n6YBT3t8bM+yWvlcR9Ns9639dES6LsKnEYTbTQPd9LyxSaWFNv2WBtfpu/+0Y2fAsNUhBQYvpivz56YGTy0Za+xkwbNeZBdAtRbcetWtp+X0WfD0lGE5XT8OZPD040X+VCUHMniqZFh+vB8HMnj68SJ/qpIDGTxVMiw/3o8DGTz9eJE/VcmBDJ4qGZYf78eBDJ5+vMifquRABk+VDMuP9+NABk8/XuRPVXIgg6dKhuXH+3Gg4eCxY4/Dn8sGq3yViwd2HzTMb6sfjkOshIrkq3w8SPuYivLszc/tHhNZLMBGrnyVkwcpikdRnr35uUvw9GZhOa/W4kAGT2vJs66tyeCpK7tbq7AMntaSZ11bk8FTV3a3VmEZPK0lz7q25n8ASAmEE8x70gYAAAAASUVORK5CYII=;" vertex="1" parent="WIyWlLk6GJQsqaUBKTNV-1">
          <mxGeometry x="12.099999999999994" y="220" width="275.79" height="270" as="geometry" />
        </mxCell>
        <mxCell id="cPH1qQ2LK0hJFeqGdGXG-64" value="" style="shape=image;verticalLabelPosition=bottom;labelBackgroundColor=#ffffff;verticalAlign=top;aspect=fixed;imageAspect=0;image=data:image/png,iVBORw0KGgoAAAANSUhEUgAAAUgAAADMCAYAAAARQjpJAAAgAElEQVR4Ae2dB7QURdqGXdw1sMqyJoIRBVl1UYKBBQSEJaqLuqCAgAQVVEDQBSSJLoIgKkoQEQyImEBRQZQoSQkSJIiIuOQcBMnx+89bv33tO1M1M13T03fm9lvnzExPdYXut6qf/qq6uuoUoaMCVIAKUAGtAqdofelJBagAFaACQkCyElABKkAFDArEBOTatWuFn2gNDh06pJVz//791MtQZ7SCxfFk3Yuue9Bk3759WuUOHz7M+udj/YPIMQFZqFAhefHFF/lxadCiRQuZOnWqtoK+/fbb8vjjj1Mvl16oP3nz5tXqFc/z9NNPp5YRWnbs2FGGDx+ulW7WrFnStGlTahah2UUXXaTVKxHPmIAsUaJEImmEKsynn34aE5ALFiwIlR6JnOw555yTSLCoMGeddVaUX9g9li5dGhOQo0ePDrtEUedfpkyZKL9EPQjIRJX6LRwAOXbsWNmxY4egSeN2sCAJSLci/78NQEIvfLw4AjJaLQDypZdeUloeOHAgWwBYkARkNknUHwDSpv4hMgEZrWdMHwASTRxU1N27d2cLS0BmkyPrDwAJvfDx4gjIaLWg4dNPP6203Lp1a7YABGQ2ObL+AJA29Q8JEJBZMia2QUAmppM7FAHpViO5bQLSu34EpHfNrGMQkN6lIyC9a2aKQUCalDH7E5BmbXzfQ0B6l5SA9K6ZKQYBaVLG7E9AmrXxfQ8B6V1SAtK7ZqYYBKRJGbM/AWnWxvc9BKR3SQlI75qZYhCQJmXM/gSkWRvf9xCQ3iUlIL1rZopBQJqUMfsTkGZtfN9DQHqXlID0rpkpBgFpUsbsT0CatfF9DwHpXVIC0rtmphgEpEkZsz8BadbG9z0EpHdJCUjvmpliEJAmZcz+BKRZG9/3EJDeJSUgvWtmikFAmpQx+xOQZm1830NAepeUgPSumSkGAWlSxuxPQJq18X0PAeldUgLSu2amGASkSRmzf1oCEpN6btu2TY4fP2488oULF8r06dPV/s8//1xWrFhhDLt69WqZOHGicX9QO9IZkJs2bZIvv/wySooJEybI999/H+UflAcB6Z/SOQHINWvWyObNm9VJjB8/XtavXy8nTpwQ1KvIGa38O1ORn376SbZv3550kmkFSEzBVL9+fTnttNPk1FNPFczIEjktk3PG9957r+Dg4fLlyydPPPGEsyvq94UXXpALL7wwyj9oj6ABiZlb/vjHP0Z9lixZEnXqmOqqYMGCUf758+cXTLRqcqjsqXSZBEjUXZ3el112mfTu3TtLJmj9yCOPxDQAsgL7uJEMIG+77TZ1bueee67cd999smfPnoSODPPCNm7cWIU944wzBLNWHTlyRFCvImcUchLs0aNHlo4FChSQVq1aya5du5zdCf2ef/75agLqhALHCJQ2gDx48KDceuutcu2118rs2bNlw4YNMmXKFDl27JhgOQLA5fXXX5fly5er02nYsKGUKlVKbQOknTp1Utvvv/++fPPNN/LWW29lWZjPP/+8YIbzr7/+Wt59911lnSIw7mzvvPOOvPnmm8oCPXnypCq0MWPGyOLFi2XUqFGyceNGlS7uRviPAt6yZYvy8/oVNCBhhUMvnP+f/vQnmTlzpvq/c+dO+fjjj2XYsGFqDkpA7sMPP5QLLrggS7tVq1ap08PNxwHkypUr5Y033lBxf/31V1VOqOgDBgzw5W6t0zOTAAnrCHq3adNGXeCoh/iPulmsWDEFBmhdoUIFee+993Snm1K/ZABZs2ZNKV++vAwcOFCd2yeffKKO9YMPPpC5c+eqOoFfXE+4Bh2rcfDgwfLRRx+psJjlfcSIEUqHv/zlL+pawxIkaN05dREBu3fvLgiLaxD1FNo5kEW9ww0G9RB1FNcl6q4zX+i8efPkxx9/lD59+mS1iH7++Wd13eI6h0ULMI8cOVIdazwrM20AiYsPFgysHrcDtPr37y8XX3yxwGq88sorlcAmQJ555ply+eWXS+nSpeW8886To0ePZgHiuuuuE9wBYW0Cutdcc42qrFWqVFHWKJqZX331lZrmH/suueQSufvuuwWFWLlyZSlXrpxcf/31cscdd1jd/YMGpKMjKiwqnFMZUEkefPBB6datm0CTX375RVUyWD/4j7s29MPF7AASYVBRmzRpIpdeeqm6AWHyX6SLpSIAh1S4TAKkc/49e/ZUEIFmcNOmTRMAAU1MXPR//etfswDixAniN1lAXn311XLnnXdKyZIlswwHXG+FCxcWXI+PPfaYghuup3r16qlTQlhYnHA6QAJuqE8tW7ZU9QvNbgDSvdRGr1695Oyzz1bXHOosWIDjKF68uDJs8AsjAF1yRYsWlcmTJ6s63KFDBwFQwYwbb7xR3ejRHXfVVVdJtWrVBOcD6zRWKyhtALlo0SIFtEhAwoKsVauW3HzzzeqCxgWLO7MJkCgE3LEAOzRtxo0bp8SDlYk7xy233KI+6ANBWEALhYKChsWKNWNQOLjg27VrJ7hAv/32W9UkQEHfc889csUVV2RVEC8VO10AiW4LWJODBg1SAIRFjIoKbdF0QpcELmjcoR1A4u4LLZ566ikpW7asPPTQQ8q6hwUJaz9VLjcAEjcmgAI31i5dukiDBg1SJVfMdJMFJJqtOA/cXNetW6fywjX02WefCQyZ//3vf6pvEfBCcxoOhgYMGzgdIBs1aqSME1h8uDHjGowEJOom4qLlAyu2atWqCsbIAxYjdAXIcH3h5gMoot4A2Gjx4bgRDg43q1NOOUWBEd0GqMtI1+TSBpC4SGGx4eRh3TnOAeRNN92kxAfYYE6bAAm4AXIAZJEiRZRF6DSxkWaNGjUUIAFOCIy7Ou4gAChMfcSF5QmHpqUbkFh0C/nDyjT1jTrHrftNF0C+/PLL6oaDrgScqwNINLHhAEiAD5amA0g0aZzmNDRAPybKBiB1LhbdOSfrlxsACXjAyoZ+qOOwInPCJQtINLMBwT/84Q+qpYfzwnUD4waQgSEDIwLXiRdAotWCOoUP6mIkIJs1a6YsQFjkAGTFihWzwqNvEi0ZaAt4o/8SzgEkbuwA5Pz585U/rm8Asn379ioNdOfFeliUNoDE0QNkuGAhCPou6tatqyy1fv36qYLo3LmzEgAFYgIkmom4o6ATHJURhYh00QyAcwCJAkVTHGFxR/zb3/6mLnQICEHhHEDiqTosWIQBPGDymzqYVUTDV7oAEpUINxzcYVHBX331VWVBwoqGH/p20aUA5wASVhCaQrfffruyPNGXhBsLKlDr1q3ZxHaVeWQTG7swEgB10+k3dwUPbDNZQMLg+Pe//61uirhhwjmAxPUAawzWIprYgChaXvEsSPTrA264gUA3PCcAIKEVrO3atWurrjdcO7gho3sMRhDqcNeuXVUfL/zxEBbNcFiPcA4gAVysTFi9enV57bXXlIWKJjnqLfpTsXKm0xWiIkZ8pRUg0YcAExtAfPbZZwUdwOj/27t3r+qYxcngQQ06gAEydODC4S7hmNC4cz333HMCK2nGjBlqP6wddB7D4S4F6xEOTchXXnlFPWRAYeKCx0MZmOVw6HQGCOBgkaJS4BjQhDetL6wCG75yCpDopMZaOM6a3KjMQ4YMUZqigkJHWAZ4gIVjxD78h4O20AEOFxhuXNAWFRk3nzlz5qibBqzNVLhMtCBxA8dDBzytdRy0Qr1yhqY5/kH+JgNIXDdDhw5V9WjSpEnqmsSx45qAsYFrF+va4PpwurVw3eGBCpq1cLh2cc3hOsNDVDyYRUsMrTgYHgAYWiO4FpEX/uO6xX9AEA5rOaGeIh/UTTyIhAM3YEk6Dtct6ibcd999p65xdCkhf3SfoXyQBvJ2rgsnrvs3rQDpPjDbbdyN0AROR5dTgExHLRI9pkwEZKLnFnS4ZAAZ9LGmS365DpA//PBDtj7MdBEax0FAei8NAtK7ZqYYBKRJGbN/rgOk+VRzfg8B6b0MCEjvmpliEJAmZcz+BKRZG9/3EJDeJSUgvWtmikFAmpQx+xOQZm1830NAepeUgPSumSkGAWlSxuxPQJq18X0PAeldUgLSu2amGASkSRmzPwFp1sb3PQSkd0kJSO+amWIQkCZlzP4EpFkb3/cQkN4lJSC9a2aKQUCalDH7E5BmbXzfQ0B6l5SA9K6ZKQYBaVLG7E9AmrXxfQ8B6V1SAtK7ZqYYBKRJGbM/AWnWxvc9BKR3SQlI75qZYhCQJmXM/gSkWRvf9xCQ3iUlIL1rZopBQJqUMfsTkGZtfN9DQHqXlID0rpkpBgFpUsbsT0CatfF9DwHpXVIC0rtmphgEpEkZsz8BadbG9z0EpHdJCUjvmpliEJAmZcz+BKRZG9/3EJDeJSUgvWtmikFAmpQx+xOQZm1830NAepeUgPSumSkGAWlSxuyfMkBihUIsxMPP7xpgvQ7M7I2KipmR3Q6zTbdt25Z6RdQZTK8PvfDx4rC2Ouve73UPWmAdFiyKBy0jlwzBbOBYQIuaZdcMSznY1D/U1VNiVVgsUYAPVrzD8gg59cFCXFi6Nafyj8x3wYIFSvBIQGL6eUczLDAUGS/I/1hTJMj84uVlU0EdLfEbL/1U78ciU6nOI9H0Ubd0gMTyEI5mWFQs0fRSEQ7r2mAphFSkbZOmTf2LC0gHnlh/wskgJ34XLlwoTZs2zdFj0J13JCAdvfCLdTl0cYLyw0JJQeXlJR+3Rl62veSRirBYgzkV6SaTZqQF6dYTC10lk3aycbGIHtZBSjYdv+O7NUpkO6YF6SSAxYqwME9OfbBiGda3zqn8Tfk6ixA5Orl/sQylKV4Q/rC4g8jHax5ujbxse83H7/BYOdPvNJNN7+jRo0YJsS/Z9JOJ36lTJ7UYVzJppCKuUTDDjoQAaYgbmDeaDh06dAgsv9yQEZbUpfNPASxfTJe4At26dbNaNTTxHIIJSUAGo3PguRCQ/kpOQHrTk4D0pldSoWlBepePgPSuWawYBGQsdaL3EZDRmqTMh4D0Li0B6V2zWDEIyFjqRO8jIKM1SZkPAeldWgLSu2axYhCQsdSJ3kdARmuSMh8C0ru0BKR3zWLFICBjqRO9j4CM1iRlPgSkd2kJSO+axYpBQMZSJ3ofARmtScp8CEjv0hKQ3jWLFYOAjKVO9D4CMlqTlPkQkN6lJSC9axYrBgEZS53ofQRktCYp8yEgvUtLQHrXLFYMAjKWOtH7CMhoTVLmQ0B6lxaAbN26daAf70dpHyPocyMgvZUVAelNr6RCE5BJyRdI5MsuuyyQfJxMChcu7GzyNw0VICADLBQCMkCxLbMiIC2Fy6XRCMgAC5aADFBsy6wISEvhcmk0AjLAgiUgAxTbMisC0lK4XBqNgAywYAnIAMW2zIqAtBQul0YjIAMsWAIyQLEtsyIgLYXLpdEIyAALloAMUGzLrAhIS+FyaTQCMsCCJSADFDvBrLBw2ZlnnilY0jXyA/8BAwYkmFJiwYYOHSpnnHFGVF7IG/lhRT+69FGAgAywLAjIAMVOMCusudOjRw/ZsWNHthj79++X+++/X62EmW1Hkn+QT/PmzQXrE7nd3r17pWvXroJ86dJHAQIywLIgIAMU20NWWG0y8g2Tl156SUaNGuUhlcSDTpo0ScHQHePRRx+VadOmub24nQYKEJABFgIBGaDYHrPCQvaTJ09WsdauXStt27YVLBOcKtexY0dZsWKFSn7evHnSrFkzwaqbdOmlAAEZYHkQkAGK7TErLM2JJi5+hw8fnvK+wMWLFwusVNQJNPG3b9/u8YgZPAgFCMggVP4tDwIyQLEtssIDlP79+0ubNm3k4MGDFikkHgV1AVYrHgK9/PLLtB4Tly7QkARkgHITkP6K3bNnT6lTp45vnwoVKsjpp58uf//7331LM9bxlS5dWk477TQpW7asr/nBIqXzRwEC0h8dE0qFgExIpoQD3XbbbQmHTTTgli1bEg3qS7jNmzf7ko47kerVq7v/cjsJBQjIJMTzGpWA9KpY7PCpAGTsHDNjLwHpXzkRkP5pGTclAjKuRJ4CEJB6uf7xj3/I0qVLZeXKlfoA9E1YAQIyYamSD0hAJq+hOwUC0q3G79sE5O9aJLtFQCaroIf4BKQHsRIISkDqRSIg9brY+BKQNqpZxiEgLYUzRCMg9cIQkHpdbHwJSBvVLOMQkJbCGaIRkHphCEi9Lja+BKSNapZxCEhL4QzRCEi9MASkXhcbXwLSRjXLOASkpXCGaASkXhgCUq+LjS8BaaOaZRwC0lI4Q7RUARJTji1ZskQwacXRo0cNuaevNwHpX9kQkP5pGTclAjKuRJ4CpAKQeJPmhhtukPr168u9994rM2fO9HRM6RCYgPSvFAhI/7SMmxIBGVciTwFSAcjRo0fLueeeq8CI8jp+/Lj6DBo0SIoVK6bem4ZlWbFiRXnyySelfPnyMmfOHKlRo4YUL15cEB/uxx9/VGFKlCgh06dPV361a9eW1q1bS61ataRhw4Ypm8GHgPRUjWIGJiBjyuPvTgLSXz1TAch9+/ZJ1apVFST79Okju3fvVrDEkgh9+/aVsWPHyq5du+TUU0+VcuXKSb9+/eSuu+6SUqVKSadOnSR//vyyatUqwcQXeOUP8zyed955agbxggULSpEiRaR79+5y9tlny8SJE/0V5LfUCEj/ZCUg/dMybkoEZFyJPAVIBSBxAFgWoXPnzmqmHUxH1qFDB2U5Yq5Ix2FdGcByz549ah8AigW/8uTJo+aTBAgLFCggF110kVqDZtmyZQJAtmzZUk3Emy9fPhXfSc/PXwLSPzUJSP+0jJsSARlXIk8BUgFIWIfr16+XnTt3KquwRYsWgnkiATq83wx/PLjBAlsTJkxQE+zeeuutUqlSJVm3bp16sIPmNZrW6MPcuHGjrFmzRg4dOqQAibkm4WBpArCpcASkf6oSkP5pGTclAjKuRJ4CpAKQI0eOVPNBAjLXXXedgiCgiOYy+iDR/F69erXkzZtX7cMyCePHj5dChQpJyZIlVbN77ty58sYbb0jhwoXl+uuvl8qVK6s+SViQBKSnIs7xwARkgEVAQPordioAiSNEv+OmTZuiDhbLIsASNDnEc69jgwc88Ava0YL0T3EC0j8t46ZEQMaVyFOAVAHS00GkYWAC0r9CISD90zJuSgRkXIk8BSAg9XIRkHpdbHwJSBvVLOMQkJbCGaIRkHphCEi9Lja+BKSNapZxCEhL4QzRCEi9MASkXhcbXwLSRjXLOASkpXCGaASkXhgCUq+LjS8BaaOaZRwC0lI4QzQCUi8MAanXxcaXgLRRzTIOAWkpnCEaAakXhoDU62LjS0DaqGYZh4C0FM4QjYDUC0NA6nWx8SUgbVSzjENAWgpniEZA6oUhIPW62PgSkDaqWcYhIC2FM0QjIPXCEJB6XWx8CUgb1SzjEJCWwhmiAZDnn38+PxEaEJCGCmPhTUBaiGYbhYC0VU4fjxakXhcCUq+LjS8BaaOaZRwC0lI4QzQCUi8MAanXxcaXgLRRzTIOAWkpnCEaAakXhoDU62LjS0DaqGYZh4C0FM4QjYDUC0NA6nWx8SUgbVSzjENAWgpniEZA6oUhIPW62PgSkDaqWcYhIC2FM0QjIPXCEJB6XWx8CUgb1SzjEJCWwhmiEZB6YQhIvS42vgSkjWqWcQhIS+EM0QhIvTAEpF4XG18C0kY1yzgEpKVwhmgEpF4YAlKvi40vAWmjmmUcAtJSOEM0AlIvDAGp18XGl4C0Uc0yDgFpKZwhGgGpF4aA1Oti40tA2qhmGYeAtBTOEI2A1AtDQOp1sfElIG1Us4xDQFoKZ4hmA8iNGzfK0qVLo1L87LPPZNeuXVH+mehBQPpXagSkf1rGTYmAjCuRpwDxAAkQtmvXLluaH3/8sXTq1En5HT16VI4fP662MSvQvHnzsoWN9+f++++XMWPGaIO509YGSKEnAemfuASkf1rGTYmAjCuRpwAA5K+//irTp09X8RYsWCD4nDhxQmARrl69WsaNGycnT56U2bNnS//+/aVz587SsWNH2b17tyB+s2bNZNGiRWrKtLfeeksGDhyo0nAfyLFjx2Tq1KmCX7f76KOPZNmyZSr8d999J4g/duxY2b59u1SrVk1atGihtVbdaaRim4D0T1UC0j8t46ZEQMaVyFMAAG7Lli3SqFEjBcGmTZvKnXfeKVu3bpUaNWrI4sWLpW3btgqiVatWlfHjx0v9+vWVVblv3z4V9j//+Y+sWbNGAbJcuXLy4osvyj//+U/Zs2dP1rGg3EaNGiWwCt2uefPmMnr0aHnqqafknHPOkSeffFIuuugiZYnWqlVLnnjiCVm3bp07SiDbBKR/MhOQ/mkZNyUCMq5EngIAkPv375e6deuq/sN69epJoUKF5Msvv5Tu3bsLrLrWrVsr6/HRRx9VlqW7if3AAw/IiBEjVJ5oYk+YMEFt33LLLbJhw4a4xwIgf/jhhwqMuJDgypcvr6xXQPvdd9+Nm0YqAhCQ/qlKQPqnZdyUCMi4EnkKAECi+Yxmc/v27RWoADcAc/LkyVmARFP48ccfV4DENprYcAAkmsVw7j5INI+9AvL1119X6VSuXDkLkO+8847yC/qLgPRPcQLSPy3jpkRAxpXIUwAAEu7TTz+VPHnyKMtx0KBBUqxYMfn555+zALljxw5B8xnAAvwAU7jnnntOGjRoIJs3b44JSDStP/nkk6gmttuCjARkz5495b777pNt27apvIL8IiD9U5uA9E/LuCkRkHEl8hTAAeQvv/wi7733nuprxAOSSZMmyeHDhwX+eGiDJ9XwA8S++uorBU5khLBoBi9ZskTQ9N65c6fKH2EOHDiQdSx4OPPNN99kPfF2dsydO1f1MeJpOYAMh4c5GEoEMKLfcsWKFU7wwH4JSP+kJiD90zJuSgRkXIk8BXAA6SlSCAITkP4VMgHpn5ZxUyIg40rkKQABqZeLgNTrYuNLQNqoZhmHgLQUzhCNgNQLQ0DqdbHxJSBtVLOMQ0DaCYcB3hjvGOkcQA4fPlz1MUbuj/z//vvva9NBODz5XrlyZWSUhP+PHDkyRx7I6A4wEpB40o8hTBhUT+dNAQLSm15JhSYg7eTLmzevNG7cWD2txlsyjnMAiQHZznAdZ5/uF2/X4MGMzrmH+Tj78ZaN8/DF8TP9uh/yRIbB+Ew8CArKuQGJ98sxoL1MmTIJDV0K6hgzJR8CMsCSIiDtxL7gggtk79698swzz6gxjHPmzFFPqd2AbNmypdSuXVu9BQNLCU+tq1SpIhiXuHz5cpUxhvrMnz9fvX6I7YYNG6rhP4AXAAkgVqhQQbp06aKGBOXPnz8rPefIER9v20S6UqVKqVcWb731Vnn44YdVvgAToPznP/9ZKlWqpJ5uR8ZLxX8A8ttvv5U333xTHQuewGNIUyJjO1NxPJmcJgEZYOkRkHZiA5COg0WHsY6PPPKIXHvttcobFuQdd9yh3r2++uqr1XhIvFqIcY94o+ahhx5S4S6//HI1gPzGG2+Uzz//XDZt2qTSAEwAyL59+6phOxUrVlSvH5YuXVq9NogmquPw5o5ubGPBggUFw35uuOEGBXG8vohjwbvaRYsWVfm6rV8nvVT84twffPBBdf4YAwpHQNopTUDa6WYVCwOOMYiZH28auAEJ4Q8ePKgmnjj99NNVn6K7iY1X/V599VUpXry4strwXjUmjYADINFXeOmll6pxjgAfgOYA0pnNx3mTBiBNdByjG5B4iwcOacN6vfLKKwVWbxAO76HDYkV/q/vdcQCySJEirHsW1597TGwQZZiKPE5JRaJMMz0UcAMSs/Lg1UJA8KabblIHGAnIDz74QDVxX3nlFfWuNgZuwwGQGMiNJmivXr2UJXrJJZeoweTuPkgHkLAkYRW6HZr669evd3up7ViABCgxUUZQ7qqrrlJTunXo0CGrD5UWZFDqp2c+BGR6losvRwVA4mED+vbQ14g3ZOCcPsiuXbvK22+/rfwAtS+++EJZfgDimWeeKegXhINV+fXXX6sHJoAgXgdEMxh9kBdeeKHqn0Q4zMQDqOLpOWbpwcw/jkPfJmYIinQXX3yxao4DvoAwHLZhgcJqRTpodgfhkC/e7pkyZYo6Fxwzug/YBxmE+umZBwGZnuXiy1HhKTamEps1a5aanMJJ1AGk8z/yF68Yojke6fDgBFbms88+q6xQB7iR4dAE18WPDJfIf7z66O7LTCSObRgHkBi2hHMD6PGQiIC0VTTz4xGQmV+GxjNYuHChHDp0KGp/PEBGRfjNA/NEDh06VL2b7bx/bQqbif5uQOL4AWZ0C7j7JDPxvHjM9goQkPbaZWxMW0Bm7AkneOCRgEwwGoPlYgUIyFxcuKZTcwCJcX4//PCDKVhcfzxhTvRpddzE0iAAAZkGhZBmh0BAplmBBHE4DiDdT7FN+Q4bNkwNfdHtx8BwDKp2OzxQwbo1QTq8jePMKxmZL8Yz6l63jAyH/wSkTpVw+xGQISx/NyBfeOEFNUC7d+/eWQ9W+vXrJ4MHD5YBAwaogeHTpk1TT6TxJgyWYEBYWI8AJBbrwqBy/GIdmbJly6qn33gwhKfdmG8SA86RBhzGTGKwOtLHCwBwmP8Rs5RjAl84LP2AMBhuFOkAQkzU63bIC+9Mr1q1Ss1P2adPH/X2EOajxOS7eEIPkDsrMbrjurcJSLca3IYCBGQI64EbkBjHCBBhED4GScOde+65Cix4mwWwGTJkiGDJBSzoBRgBgvADIM866yz1tBdDigBNpA2A4t3t8847T5w3c6pXr64W9AKssGAXBqYDlnhKjXSxDg6a+3gggvGIGPLjDEB3FxGeoke+kQP4Ybwihufky5dP/vvf/6oZ0AFlbLdp00aNa4z3NJyAdCvNbShAQIawHrgBiafScHhf2xmnWKJECfn++++VvwNIrImNcZJwWNDLASRgCId3tDGoG0sxwGqEw0qFM2fOVNs1a9ZU8bE4GJZuwPveWLgLVh1ed0TesGEjKjsAAAosSURBVADxWiEW7sIkG3gKn4hzAxLjPeEwKB5WKo4T55CIIyATUSlcYQjIcJW3Ols3IJ3ZfPD2CMY3wpUsWVK9n41tB5BPP/20jBkzRgGtSZMmWYB0+iBhGTqARJMZDoPAMTQIDoPOsfY10sa73Hg32xk+gwHlABomzYBFic9rr72mLNlEphpzAxLpwOFdYAeQznmpHTG+CMgY4oR0FwEZwoJ3AxLbzz//vHr/Gc1cOMyws3r1arXtABKWICDYqlUr9Y405pLEmziRgEQ/ZZ06dVRzORKQeMvm7rvvVv2YeOUR8ERzGX2VPXr0UG/8oGmOpjssUzTDI9/nBfScVyCdojMBEl0H6M/EzERYL4dNbEcx/iaqAAGZqFK5KJwDyLVr18pPP/2k3pvGrzNrDradBygAFl5XxAMPDJpGPyGWiAVwMMGD88QaswXB2oNliKYxnhzjjRTnjRrkhTQQHn2VmOgCb6vAily0aJGCJf4jDPo+sT+yrxFFgKfkkYPfEQ/HCUsUxwSHXwxmhzWK1wcxHImAzEWVOKBTISADEjqdsnEA6eWYZsyYoeaBrF+/vmDZ1tzo2MTOjaWa3DkRkMnpl5GxbQAJSw9WIYbywCrLjY6AzI2lmtw5EZDJ6ZeRsW0AmZEn6vGgCUiPgoUgOAEZgkKOPEUCMlKR//9PQOp1CbMvARnC0icg9YVOQOp1CbMvARnC0icg9YVOQOp1CbMvARnC0icg9YVOQOp1CbMvARnC0icg9YVOQOp1CbMvARnC0icg9YVOQOp1CbMvARnC0icg9YVOQOp1CbMvARnC0icg9YVOQOp1CbMvARnC0icg9YVOQOp1CbMvARnC0icg9YVOQOp1CbMvARnC0icg9YVOQOp1CbMvARnC0gcgsVYLP9k1ICBDeDHEOWUCMo5AuXE3LUh9qRKQel3C7EtAhrD0CUh9oROQel3C7EtAhrD0CUh9oROQel3C7EtAhrD0CUh9oROQel3C7EtAhrD0CUh9oROQel3C7EtAhrD0CUh9oROQel3C7EtAhrD0CUh9oROQel3C7EtAhrD0CUh9oROQel3C7EtAhrD0Mw2Qx48fz1pfO5XFRUCmUt3MTJuAzMxyS+qobQHZunVrqVq1arbPkCFDkjqWeJG//fZbueuuu6R69ery9ttvxwzerl072bFjR8wwsXYSkLHUCec+AjKE5e4AEmtd//TTT7Jq1Sr5+eefZd++fXLkyBH1H/6w3H799VcpXbq0jBgxQvbv36/8mjZtKgMGDFDbJ06ckA0bNqjtkydPqnWzEW7z5s0qTaSNfOCwnjb+O2lHSr9p0yaVv+OP/B988EGZNWuWsiC3bt0qkyZNkmbNmqm0AUN8cOzIY9q0aSrcmjVrBGl9//33smfPHpXcrl27ZMWKFbJ27Vq1vreTh/uXgHSrwW0oQECGsB44gPzwww+lYsWK0qNHD7nyyitl3Lhx8vLLL0ujRo2U1TZhwgRZuXKlFC5cWB544AFZv369Uqt58+YyaNCgLOXq1aungLhx40a5/fbbZcGCBXL99deLY3E6ll+/fv2kSZMm8q9//UuBLiuB3zZeeOGFbPACfHv27Kmsx/nz5wsAjDDlypWTwYMHyzPPPCOAWrdu3eSXX36RmjVrquMoXry41K1bV8G1c+fOcuzYMXVOjz32mLRs2VJ9IvPGfwJSp0q4/QjIEJY/AAmLq3HjxoImLByazu+8847ccMMN8vHHH8vTTz8t99xzj9pXokQJmTJlSpZSkYDs0qWLjBw5Ur744gvp2rWrLF++XBAG7tNPP5VKlSop6/Saa66RsWPHSvfu3dVEGVkJxtgA3Dp27Kgg/dVXX8nChQulTZs2KgaOEXk7rkKFCgJIX3HFFTJ79mxlsaJ5DsuxWrVq6hiWLFkirVq1cqJk+yUgs8nBP7Qgw1kHAMgDBw4oSw5NUTRly5cvLwMHDpSrrrpKQa5///6qWQ2F4gESzV5YougDBJgAyEceeUSJO3nyZLnxxhtV07ZIkSLK2kPao0aN8iT+G2+8IQAgAAnLFA6AHD58eFY6DiABYli+aNLffffdAku4Tp06qvmOGwKsYZ0jIHWqhNuPFmQIyx+ARHMV1hfA1rZtW8mXL5+MHj1asK99+/aye/duBTrIU6NGDXnttdeylIq0INF3edlll8nNN98sO3fuVPGwjWYvLMq+ffsqOMFKhTUIf1h1kW7evHmqn9PxB7gBXxwLugOQ5rJly1TzH83vRAGJflR0ITz11FPKQoblrHMEpE6VcPsRkCEsf0AQbvv27dK7d2/Bk2g0S2fMmKGaqGjCNmjQQIEN4WB14cEMHrDADRs2TGAZul3Dhg1V0xl+sCCrVKmimtFICw9I4PAwB9Yf0oYVGengt2XLlixvABJ9jnfeeaeC+NKlS1UzuVevXiodAB3NbsehvxIwfeKJJ1RfJJrnsIrx4AkPcLAfecDS1TkCUqdKuP0IyBCWvwNIPJlGcxN9jeh7PHjwoFID1iXg5Hb4D3+d27ZtmxQtWlQ9TcZ+p4kNKw8ft9Ol7d6v2z506FC2dJAG4OfFYXJgPKQpU6aMfPLJJ9qoBKRWllB7EpAhLH4HkLDspk6dKhMnTlT9dbZS7N27VxYtWpQVHf2bq1evzvqfDhuANsCIXxPoCch0KKn0OgYCMr3KI5CjcQAZSGYZlAkBmUGFFdChEpABCZ1O2RCQ+tIgIPW6hNmXgAxh6ROQ+kInIPW6hNmXgAxh6ROQ+kInIPW6hNmXgAxh6ROQ+kInIPW6hNmXgAxh6ROQ+kInIPW6hNmXgAxh6ROQ+kInIPW6hNmXgAxh6ROQ+kInIPW6hNmXgAxh6QOQmCuRn+waEJAhvBjinDIBGUeg3Lgb05INHTpUfZ588knJyU+ePHlyNH/3uWOOSbzvjZmA6KgAFCAgQ14PAISc/ACQOZm/Lm8CMuQXhev0CUiXGGHcxOw5Ofk59dRTczR/3bkns65NGOtQbj5nAjI3l24GnBsASUcF0lUBAjJdSyYkx0VAhqSgM/Q0CcgMLbjcctgEZG4pydx5HgRk7izXjDkrAjJjiiqUB0pAhrLY0+ekCcj0KQseSbQCBGS0JvQJUAECMkCxmZVnBQhIz5Ixgp8KEJB+qsm0/FaAgPRbUabnSQEC0pNcDBywAgRkwIIzu+wKEJDZ9eC/9FKAgEyv8gjd0RCQoSvyjDphAjKjiiv3HSwBmfvKNDedEQGZm0ozA87lxx9/lPHjx2cdqRuQc+fOVetWZ+3kBhXIYQUIyBwugLBlj9lzLrjgAtm/f786dQeQhw8flrx588rs2bPDJgnPN40VICDTuHBy46GdPHlSOnXqJI0bN1an5wDy4YcflkaNGsmxY8dy42nznDJUAQIyQwsu0w87f/78MmPGDAEgly9fLgUKFJAjR45k+mnx+HOZAgRkLivQTDmdjz76SBo2bCiYMLd169YycODATDl0HmeIFPg//sjjJBis7lUAAAAASUVORK5CYII=;" vertex="1" parent="WIyWlLk6GJQsqaUBKTNV-1">
          <mxGeometry x="30" y="-230" width="723.53" height="450" as="geometry" />
        </mxCell>
      </root>
    </mxGraphModel>
  </diagram>
</mxfile>
